<?xml version="1.0" encoding="UTF-8"?>
<svg xmlns="http://www.w3.org/2000/svg" xmlns:xlink="http://www.w3.org/1999/xlink" width="375pt" height="374.999991pt" viewBox="0 0 375 374.999991" version="1.2">
<defs>
<clipPath id="clip1">
  <path d="M 118 120 L 187 120 L 187 267 L 118 267 Z M 118 120 "/>
</clipPath>
<clipPath id="clip2">
  <path d="M 190 120 L 258.269531 120 L 258.269531 266.992188 L 190 266.992188 Z M 190 120 "/>
</clipPath>
</defs>
<g id="surface1">
<path style=" stroke:none;fill-rule:nonzero;fill:rgb(57.649231%,88.238525%,84.709167%);fill-opacity:1;" d="M 259.800781 329.855469 L 116.492188 329.855469 C 114.832031 329.859375 113.183594 329.730469 111.542969 329.472656 C 109.90625 329.214844 108.296875 328.828125 106.71875 328.316406 C 105.140625 327.804688 103.613281 327.171875 102.136719 326.417969 C 100.65625 325.664062 99.246094 324.796875 97.90625 323.820312 C 96.566406 322.84375 95.308594 321.769531 94.136719 320.59375 C 92.964844 319.417969 91.894531 318.160156 90.921875 316.816406 C 89.949219 315.472656 89.089844 314.058594 88.339844 312.578125 C 87.589844 311.097656 86.960938 309.570312 86.453125 307.988281 L 42.195312 171.710938 C 41.683594 170.136719 41.296875 168.53125 41.039062 166.898438 C 40.78125 165.265625 40.652344 163.621094 40.652344 161.96875 C 40.652344 160.3125 40.78125 158.671875 41.042969 157.035156 C 41.304688 155.402344 41.6875 153.800781 42.203125 152.226562 C 42.714844 150.65625 43.347656 149.132812 44.101562 147.660156 C 44.855469 146.1875 45.71875 144.785156 46.691406 143.445312 C 47.667969 142.109375 48.738281 140.859375 49.910156 139.691406 C 51.082031 138.523438 52.339844 137.457031 53.679688 136.488281 L 169.613281 52.25 C 170.960938 51.304688 172.375 50.464844 173.847656 49.734375 C 175.324219 49.007812 176.847656 48.394531 178.417969 47.898438 C 179.988281 47.402344 181.589844 47.027344 183.214844 46.777344 C 184.84375 46.527344 186.480469 46.402344 188.128906 46.402344 C 189.773438 46.402344 191.410156 46.527344 193.039062 46.777344 C 194.667969 47.027344 196.265625 47.402344 197.835938 47.898438 C 199.40625 48.394531 200.929688 49.007812 202.40625 49.734375 C 203.882812 50.464844 205.292969 51.304688 206.640625 52.25 L 322.601562 136.488281 C 323.9375 137.457031 325.191406 138.527344 326.359375 139.699219 C 327.53125 140.867188 328.601562 142.117188 329.570312 143.457031 C 330.542969 144.792969 331.40625 146.199219 332.15625 147.671875 C 332.90625 149.144531 333.539062 150.664062 334.050781 152.238281 C 334.5625 153.808594 334.945312 155.410156 335.207031 157.042969 C 335.464844 158.675781 335.597656 160.320312 335.597656 161.972656 C 335.597656 163.625 335.46875 165.269531 335.210938 166.902344 C 334.953125 168.535156 334.570312 170.136719 334.0625 171.710938 L 289.800781 307.988281 C 289.292969 309.566406 288.664062 311.09375 287.914062 312.574219 C 287.167969 314.050781 286.308594 315.460938 285.335938 316.804688 C 284.363281 318.148438 283.292969 319.40625 282.125 320.582031 C 280.953125 321.753906 279.699219 322.828125 278.359375 323.804688 C 277.019531 324.78125 275.613281 325.648438 274.136719 326.402344 C 272.660156 327.15625 271.136719 327.789062 269.5625 328.304688 C 267.984375 328.816406 266.378906 329.203125 264.742188 329.464844 C 263.105469 329.722656 261.457031 329.855469 259.800781 329.855469 Z M 259.800781 329.855469 "/>
<g clip-path="url(#clip1)" clip-rule="nonzero">
<path style=" stroke:none;fill-rule:nonzero;fill:rgb(0%,0%,0%);fill-opacity:1;" d="M 152.167969 227.816406 C 153.144531 227.816406 153.941406 228.613281 153.941406 229.59375 C 153.941406 229.789062 153.914062 229.984375 153.847656 230.167969 C 151.921875 235.152344 154.398438 240.761719 159.386719 242.695312 C 162.804688 244.011719 166.699219 243.28125 169.398438 240.789062 C 170.128906 240.136719 171.261719 240.1875 171.914062 240.917969 C 172.566406 241.636719 172.527344 242.757812 171.808594 243.425781 C 166.4375 248.371094 158.070312 248.019531 153.132812 242.628906 C 149.71875 238.921875 148.714844 233.585938 150.539062 228.886719 C 150.8125 228.234375 151.453125 227.816406 152.167969 227.816406 Z M 175.027344 120 C 170.207031 119.871094 165.488281 121.394531 161.65625 124.332031 C 166.542969 125.285156 170.949219 127.90625 174.117188 131.757812 C 174.726562 132.527344 174.597656 133.648438 173.828125 134.261719 C 173.074219 134.851562 171.992188 134.746094 171.367188 134.027344 C 165.097656 126.367188 153.808594 125.257812 146.171875 131.535156 C 140.230469 136.429688 138.066406 144.574219 140.804688 151.761719 C 130.597656 153.679688 123.886719 163.507812 125.804688 173.726562 C 126.207031 175.867188 126.976562 177.914062 128.070312 179.792969 C 119.898438 183.8125 116.523438 193.71875 120.539062 201.914062 C 120.902344 202.65625 121.332031 203.375 121.800781 204.066406 C 126.546875 198.496094 133.597656 195.453125 140.894531 195.804688 C 140.503906 188.222656 146.316406 181.765625 153.886719 181.359375 C 155.035156 181.308594 156.183594 181.398438 157.316406 181.621094 C 158.265625 181.832031 158.867188 182.78125 158.660156 183.75 C 158.449219 184.675781 157.539062 185.273438 156.613281 185.105469 C 151.097656 183.996094 145.742188 187.558594 144.621094 193.066406 C 144.414062 194.121094 144.375 195.191406 144.492188 196.25 C 149.953125 197.371094 154.851562 200.398438 158.308594 204.785156 C 158.917969 205.554688 158.800781 206.675781 158.03125 207.289062 C 157.277344 207.917969 156.15625 207.800781 155.53125 207.03125 C 155.53125 207.015625 155.519531 207.003906 155.503906 206.988281 C 148.664062 198.285156 136.058594 196.773438 127.355469 203.625 C 118.660156 210.488281 117.148438 223.105469 123.992188 231.8125 C 126.859375 235.453125 130.886719 237.984375 135.394531 238.988281 C 134.445312 248.59375 141.402344 257.152344 150.980469 258.183594 C 158.777344 268.167969 173.164062 269.917969 183.121094 262.125 C 184.476562 261.070312 185.703125 259.855469 186.785156 258.511719 L 186.785156 232.203125 C 183.578125 223.144531 174.089844 217.953125 164.746094 220.132812 C 163.78125 220.351562 162.828125 219.753906 162.609375 218.800781 C 162.386719 217.835938 162.984375 216.882812 163.9375 216.660156 C 172.5 214.664062 181.441406 217.875 186.785156 224.84375 L 186.785156 164.1875 C 182.128906 155.027344 170.933594 151.386719 161.800781 156.042969 C 158.097656 157.9375 155.140625 161.003906 153.394531 164.761719 C 152.976562 165.660156 151.921875 166.039062 151.019531 165.621094 C 150.136719 165.203125 149.742188 164.148438 150.160156 163.261719 C 155.335938 152.167969 168.5 147.367188 179.589844 152.535156 C 182.324219 153.8125 184.777344 155.652344 186.785156 157.910156 L 186.785156 124.019531 C 183.355469 121.527344 179.261719 120.117188 175.027344 120 "/>
</g>
<g clip-path="url(#clip2)" clip-rule="nonzero">
<path style=" stroke:none;fill-rule:nonzero;fill:rgb(0%,0%,0%);fill-opacity:1;" d="M 204.15625 174 C 212.105469 173.792969 218.726562 180.082031 218.933594 188.042969 C 218.933594 188.183594 218.933594 188.328125 218.933594 188.472656 C 231.929688 189.085938 241.949219 200.113281 241.339844 213.109375 C 241.3125 213.722656 241.261719 214.324219 241.183594 214.925781 C 241.105469 215.902344 240.242188 216.632812 239.265625 216.542969 C 238.289062 216.464844 237.558594 215.601562 237.636719 214.625 C 237.648438 214.570312 237.648438 214.53125 237.664062 214.480469 C 239.03125 203.519531 231.265625 193.523438 220.316406 192.152344 C 214.101562 191.371094 207.871094 193.5625 203.503906 198.0625 C 202.851562 198.808594 201.730469 198.875 200.988281 198.21875 C 200.257812 197.566406 200.179688 196.445312 200.832031 195.703125 C 200.871094 195.664062 200.910156 195.625 200.949219 195.585938 C 204.792969 191.628906 209.902344 189.152344 215.378906 188.578125 C 215.457031 182.574219 210.671875 177.640625 204.675781 177.5625 C 203.832031 177.550781 202.996094 177.640625 202.175781 177.8125 C 201.210938 178.007812 200.273438 177.378906 200.089844 176.414062 C 199.90625 175.476562 200.492188 174.574219 201.40625 174.339844 C 202.304688 174.144531 203.230469 174.027344 204.15625 174 Z M 202.097656 120 C 197.859375 120.128906 193.769531 121.527344 190.339844 124.019531 L 190.339844 137.421875 C 193.363281 135.726562 196.9375 135.347656 200.246094 136.390625 C 201.160156 136.730469 201.640625 137.746094 201.300781 138.675781 C 200.988281 139.535156 200.0625 140.019531 199.164062 139.785156 C 196.074219 138.816406 192.699219 139.585938 190.328125 141.792969 L 190.328125 238.375 C 194.070312 234.289062 199.777344 232.644531 205.105469 234.132812 C 206.03125 234.433594 206.539062 235.453125 206.242188 236.378906 C 205.941406 237.238281 205.054688 237.761719 204.167969 237.554688 C 198.226562 235.921875 192.085938 239.394531 190.445312 245.34375 C 190.40625 245.472656 190.378906 245.617188 190.339844 245.75 L 190.339844 258.511719 C 198.316406 268.351562 212.730469 269.839844 222.546875 261.851562 C 223.886719 260.769531 225.085938 259.542969 226.140625 258.183594 C 233.832031 257.363281 240.074219 251.582031 241.507812 243.972656 C 229.855469 246.9375 217.761719 241.128906 212.769531 230.179688 C 212.394531 229.277344 212.835938 228.234375 213.734375 227.855469 C 214.59375 227.503906 215.585938 227.871094 216.003906 228.707031 C 220.878906 239.433594 233.503906 244.167969 244.21875 239.289062 C 254.933594 234.40625 259.664062 221.761719 254.789062 211.035156 C 254.164062 209.664062 253.40625 208.375 252.507812 207.160156 C 259.429688 201.222656 260.222656 190.796875 254.292969 183.867188 C 252.847656 182.167969 251.0625 180.785156 249.054688 179.792969 C 254.226562 170.789062 251.125 159.292969 242.132812 154.113281 C 233.140625 148.929688 221.644531 152.039062 216.484375 161.042969 C 216.042969 161.917969 214.972656 162.28125 214.101562 161.835938 C 213.214844 161.40625 212.863281 160.335938 213.292969 159.449219 C 213.332031 159.398438 213.355469 159.34375 213.382812 159.292969 C 218.128906 150.851562 227.757812 146.414062 237.246094 148.316406 C 238.847656 138.542969 232.242188 129.332031 222.480469 127.726562 C 221.253906 127.515625 220.03125 127.453125 218.792969 127.503906 C 214.660156 122.582031 208.507812 119.816406 202.097656 120 "/>
</g>
</g>
</svg>
